<?xml version="1.0" encoding="iso-8859-1"?>
<!-- Generator: Adobe Illustrator 19.0.0, SVG Export Plug-In . SVG Version: 6.00 Build 0)  -->
<svg version="1.1" id="Layer_1" xmlns="http://www.w3.org/2000/svg" xmlns:xlink="http://www.w3.org/1999/xlink" x="0px" y="0px"
	 viewBox="0 0 512 512" style="enable-background:new 0 0 512 512;" xml:space="preserve">
<g>
	<g>
		<g>
			<path d="M486.4,0H25.6C11.486,0,0,11.486,0,25.6v51.2v409.6C0,500.514,11.486,512,25.6,512h460.8c14.114,0,25.6-11.486,25.6-25.6
				V76.8V25.6C512,11.486,500.514,0,486.4,0z M17.067,25.6c0-4.702,3.823-8.533,8.533-8.533h460.8c4.71,0,8.533,3.831,8.533,8.533
				v42.667H17.067V25.6z M494.933,486.4c0,4.702-3.823,8.533-8.533,8.533H25.6c-4.71,0-8.533-3.831-8.533-8.533V85.333h477.867
				V486.4z"/>
			<path d="M42.667,34.133c-4.719,0-8.533,3.823-8.533,8.533c0,4.71,3.814,8.533,8.533,8.533s8.533-3.823,8.533-8.533
				C51.2,37.956,47.386,34.133,42.667,34.133z"/>
			<path d="M76.8,34.133c-4.719,0-8.533,3.823-8.533,8.533c0,4.71,3.814,8.533,8.533,8.533s8.533-3.823,8.533-8.533
				C85.333,37.956,81.519,34.133,76.8,34.133z"/>
			<path d="M110.933,34.133c-4.719,0-8.533,3.823-8.533,8.533c0,4.71,3.814,8.533,8.533,8.533s8.533-3.823,8.533-8.533
				C119.467,37.956,115.652,34.133,110.933,34.133z"/>
			<path d="M59.733,216.866v30.601c0,18.825,15.309,34.133,34.133,34.133c4.719,0,8.533-3.823,8.533-8.533s-3.814-8.533-8.533-8.533
				c-9.412,0-17.067-7.654-17.067-17.067v-34.133c0-2.261-0.896-4.437-2.5-6.033l-11.034-11.034L74.3,185.233
				c1.604-1.596,2.5-3.772,2.5-6.033v-34.133c0-9.412,7.654-17.067,17.067-17.067c4.719,0,8.533-3.823,8.533-8.533
				s-3.814-8.533-8.533-8.533c-18.825,0-34.133,15.309-34.133,34.133v30.601l-14.566,14.566c-3.337,3.337-3.337,8.73,0,12.066
				L59.733,216.866z"/>
			<path d="M76.8,315.733c0,4.71,3.814,8.533,8.533,8.533c9.446,0,17.135,7.654,17.135,17.05L102.4,375.45
				c-0.009,2.27,0.887,4.446,2.5,6.05l11.034,11.034L104.9,403.567c-1.604,1.596-2.5,3.772-2.5,6.033v34.133
				c0,9.412-7.654,17.067-17.067,17.067c-4.719,0-8.533,3.823-8.533,8.533s3.814,8.533,8.533,8.533
				c18.825,0,34.133-15.309,34.133-34.133v-30.601l14.566-14.566c3.337-3.336,3.337-8.73,0-12.066l-14.558-14.566l0.06-30.601
				c0-18.825-15.343-34.133-34.202-34.133C80.614,307.2,76.8,311.023,76.8,315.733z"/>
			<path d="M166.972,280.764c1.195,0.572,2.449,0.836,3.686,0.836c3.183,0,6.229-1.784,7.697-4.847
				c2.048-4.25,0.256-9.344-3.994-11.383c-14.583-6.989-29.295-31.061-29.295-69.103c0-39.501,15.949-62.003,29.611-69.265
				c4.156-2.21,5.743-7.381,3.524-11.546c-2.219-4.164-7.381-5.743-11.546-3.524C147.968,121.873,128,149.248,128,196.267
				C128,244.847,149.001,272.145,166.972,280.764z"/>
			<path d="M200.789,265.532c-4.156,2.21-5.743,7.381-3.524,11.546c1.536,2.884,4.489,4.523,7.543,4.523
				c1.348,0,2.722-0.324,4.002-0.998c18.688-9.941,38.656-37.316,38.656-84.335c0-48.58-21.001-75.878-38.972-84.497
				c-4.275-2.048-9.353-0.239-11.383,4.011c-2.048,4.25-0.256,9.344,3.994,11.383c14.583,6.989,29.295,31.061,29.295,69.103
				C230.4,235.767,214.451,258.27,200.789,265.532z"/>
		</g>
	</g>
</g>
<g>
</g>
<g>
</g>
<g>
</g>
<g>
</g>
<g>
</g>
<g>
</g>
<g>
</g>
<g>
</g>
<g>
</g>
<g>
</g>
<g>
</g>
<g>
</g>
<g>
</g>
<g>
</g>
<g>
</g>
</svg>
